<svg width="118" height="40" viewBox="0 0 118 40" fill="none" xmlns="http://www.w3.org/2000/svg">
<g clip-path="url(#clip0_102_24)">
<path d="M29.1706 31.2339C27.8963 32.5236 26.6297 33.8175 25.3498 35.0982C23.8054 36.643 22.236 38.1632 20.7095 39.7256C20.3475 40.0964 20.1727 40.0866 19.8113 39.726C14.8444 34.7743 9.86033 29.8403 4.8805 24.9016C4.08034 24.1084 3.2992 23.2946 2.47272 22.5298C2.12038 22.2038 2.17897 22.041 2.50749 21.755C6.10063 18.6221 10.2179 16.5066 14.8986 15.6374C23.5034 14.039 31.2005 16.0511 37.9263 21.6966C38.344 22.0468 38.3636 22.2274 37.9563 22.611C34.9785 25.4171 31.8261 27.9605 27.9421 29.429C24.2358 30.8307 20.5237 30.7698 16.8332 29.3873C15.3418 28.829 14.0755 27.925 13.1661 26.5859C11.7861 24.5547 11.9822 22.0393 13.6817 20.2592C15.1962 18.6731 17.1361 17.9519 19.2556 17.6677C20.8205 17.4581 22.3757 17.5407 23.8821 18.0708C24.7631 18.3808 25.5448 18.8494 26.1419 19.586C27.2539 20.9588 27.1133 22.7693 25.7373 23.8805C24.0611 25.2344 22.1319 25.6296 20.0338 25.1614C19.347 25.0079 18.7591 24.668 18.2875 24.1247C17.8445 23.6148 17.2639 23.5397 16.8349 23.8951C16.3786 24.2734 16.3717 24.8726 16.8384 25.4163C17.689 26.4065 18.8194 26.8923 20.069 27.1044C22.6168 27.5371 25.0296 27.1544 27.173 25.6616C30.0275 23.6736 30.0841 20.3249 27.3227 18.2014C25.5318 16.8247 23.4281 16.4076 21.2286 16.3684C18.2087 16.3146 15.3838 16.9934 12.9171 18.7989C8.92242 21.7221 8.86287 26.5965 12.7611 29.6517C14.7339 31.1986 17.0274 31.9398 19.4771 32.2789C22.681 32.7219 25.7992 32.372 28.8367 31.2718C28.9411 31.2343 29.039 31.1565 29.1706 31.2339Z" fill="#FFFFFF"/>
<path d="M0.773676 20.7611C0.453419 20.616 0.243821 20.3632 0.0572767 20.116C-0.123312 19.876 0.169088 19.7563 0.298766 19.6274C5.85936 14.1043 11.4238 8.58422 16.9907 3.06705C17.9371 2.12875 18.9225 1.22773 19.8365 0.259661C20.2292 -0.156269 20.4146 -0.0212116 20.7418 0.305961C24.4636 4.02839 28.1964 7.73987 31.9323 11.4481C34.6565 14.1517 37.3911 16.845 40.1163 19.5479C40.3212 19.7507 40.7057 19.9273 40.2824 20.3017C39.9795 20.5703 39.8075 20.9017 39.2925 20.4971C35.1629 17.2542 30.4751 15.2266 25.3051 14.3938C19.2222 13.414 13.3248 14.1492 7.66198 16.6191C5.33412 17.6342 3.17493 18.9325 1.16924 20.4887C1.04417 20.5859 0.908349 20.6689 0.773676 20.7611Z" fill="#FFFFFF"/>
<path d="M54.9635 15.3412C54.9635 15.4907 54.957 15.6152 54.9439 15.7154C54.9312 15.8161 54.912 15.8972 54.8861 15.959C54.8601 16.0209 54.8283 16.0657 54.7894 16.0939C54.751 16.1223 54.7088 16.1366 54.6621 16.1366H49.644C49.4744 16.1366 49.3316 16.0862 49.2158 15.9859C49.0999 15.8857 49.0421 15.7224 49.0421 15.4958V6.78744C49.0421 6.56094 49.0999 6.39764 49.2158 6.29697C49.3316 6.19688 49.4746 6.14674 49.644 6.14674H54.6313C54.6776 6.14674 54.7187 6.15961 54.7549 6.18554C54.791 6.21109 54.8215 6.25624 54.8475 6.32041C54.873 6.38477 54.8926 6.46699 54.9055 6.56766C54.9182 6.66775 54.9245 6.79532 54.9245 6.94978C54.9245 7.09406 54.9182 7.21624 54.9055 7.31634C54.8926 7.41681 54.873 7.49808 54.8475 7.55994C54.8215 7.62161 54.791 7.66656 54.7549 7.695C54.7187 7.72304 54.6776 7.73726 54.6313 7.73726H51.0647V10.1764H54.083C54.1293 10.1764 54.1718 10.1908 54.2106 10.2188C54.2488 10.2473 54.2811 10.2909 54.3068 10.3502C54.3324 10.4094 54.352 10.4891 54.3649 10.5894C54.3775 10.6901 54.3841 10.8123 54.3841 10.9562C54.3841 11.1056 54.3775 11.2293 54.3649 11.3267C54.352 11.4245 54.3324 11.5031 54.3068 11.5621C54.2809 11.6215 54.2488 11.6639 54.2106 11.6895C54.1718 11.7154 54.1293 11.7283 54.083 11.7283H51.0647V14.546H54.6621C54.7088 14.546 54.751 14.5601 54.7894 14.5883C54.8283 14.6167 54.8601 14.6619 54.8861 14.7237C54.912 14.7856 54.9312 14.8663 54.9439 14.967C54.957 15.067 54.9635 15.1921 54.9635 15.3412Z" fill="#FFFFFF"/>
<path d="M63.2162 15.8739C63.2162 15.9254 63.201 15.9704 63.1701 16.009C63.1394 16.0476 63.0873 16.0801 63.0154 16.1052C62.9434 16.1312 62.8441 16.1508 62.7182 16.1635C62.592 16.1763 62.4362 16.1827 62.251 16.1827C62.0608 16.1827 61.9023 16.1763 61.7759 16.1635C61.6503 16.1508 61.5508 16.1312 61.4785 16.1052C61.4065 16.0801 61.3552 16.0476 61.3243 16.009C61.2935 15.9704 61.278 15.9252 61.278 15.8739V11.9446C61.278 11.6099 61.2536 11.3475 61.2046 11.1573C61.1558 10.9667 61.0851 10.803 60.9925 10.6668C60.9003 10.5306 60.7804 10.425 60.6338 10.3504C60.4868 10.2757 60.3158 10.2382 60.1201 10.2382C59.873 10.2382 59.6233 10.3285 59.3714 10.5087C59.1192 10.6889 58.8565 10.9514 58.5841 11.2962V15.8741C58.5841 15.9256 58.5685 15.9706 58.5378 16.0092C58.5067 16.0478 58.4541 16.0803 58.3795 16.1054C58.305 16.1314 58.2058 16.151 58.0823 16.1636C57.959 16.1765 57.8018 16.1829 57.6114 16.1829C57.421 16.1829 57.2641 16.1765 57.1406 16.1636C57.0168 16.151 56.9181 16.1314 56.8434 16.1054C56.7688 16.0803 56.716 16.0478 56.6852 16.0092C56.6541 15.9706 56.6387 15.9254 56.6387 15.8741V8.98774C56.6387 8.93626 56.6516 8.89111 56.6776 8.85269C56.7031 8.81388 56.7494 8.78199 56.8165 8.75605C56.8831 8.7305 56.9696 8.71129 57.0752 8.69822C57.1809 8.68516 57.3133 8.67863 57.4727 8.67863C57.6374 8.67863 57.7738 8.68516 57.8817 8.69822C57.9897 8.71129 58.0735 8.73031 58.1326 8.75605C58.1918 8.78199 58.2341 8.81388 58.26 8.85269C58.2856 8.89111 58.2984 8.93626 58.2984 8.98774V9.78291C58.6794 9.37121 59.0669 9.06228 59.4603 8.85672C59.8542 8.65096 60.2647 8.5478 60.6916 8.5478C61.16 8.5478 61.555 8.62503 61.8768 8.77949C62.1982 8.93395 62.4583 9.14374 62.6564 9.40867C62.8545 9.6734 62.9974 9.98386 63.0848 10.3389C63.1724 10.6939 63.2162 11.1214 63.2162 11.6203V15.8739" fill="#FFFFFF"/>
<path d="M71.33 9.4663C71.33 9.71336 71.3018 9.89607 71.2453 10.0146C71.1888 10.1331 71.1189 10.1919 71.0367 10.1919H70.2263C70.3395 10.3156 70.4205 10.4559 70.4695 10.6127C70.5185 10.7696 70.5429 10.9329 70.5429 11.1027C70.5429 11.5043 70.4759 11.8608 70.342 12.1721C70.2085 12.4835 70.0169 12.7459 69.7668 12.9595C69.517 13.1732 69.2164 13.3353 68.864 13.4456C68.5113 13.5566 68.1188 13.612 67.6865 13.612C67.4654 13.612 67.2541 13.5847 67.0535 13.5307C66.8526 13.4767 66.6981 13.4137 66.5903 13.3417C66.5287 13.4089 66.4731 13.4884 66.4243 13.581C66.3757 13.6736 66.3511 13.7768 66.3511 13.8898C66.3511 14.0392 66.4165 14.1614 66.5475 14.2565C66.6789 14.3516 66.8631 14.4043 67.0994 14.4148L68.7751 14.4763C69.1662 14.4919 69.5149 14.5474 69.821 14.6425C70.1274 14.7378 70.3846 14.8713 70.5931 15.0438C70.8015 15.2161 70.9613 15.4232 71.0716 15.6653C71.1821 15.9074 71.2376 16.1825 71.2376 16.4912C71.2376 16.8311 71.1629 17.1513 71.0136 17.4525C70.8647 17.7534 70.6405 18.0149 70.342 18.2362C70.0434 18.4571 69.6692 18.6323 69.2187 18.761C68.7685 18.8894 68.2421 18.9541 67.6399 18.9541C67.0531 18.9541 66.5527 18.9074 66.1381 18.815C65.7245 18.7224 65.3844 18.5937 65.1191 18.4289C64.8542 18.2642 64.6613 18.0675 64.5403 17.8383C64.419 17.6093 64.3589 17.3582 64.3589 17.0858C64.3589 16.916 64.3808 16.7534 64.4242 16.599C64.4682 16.4447 64.5322 16.2966 64.6175 16.1552C64.7022 16.0138 64.8065 15.8787 64.9303 15.7498C65.0542 15.6213 65.1956 15.4978 65.3548 15.3792C65.1337 15.2611 64.9622 15.1001 64.8415 14.8966C64.7207 14.6934 64.6603 14.4711 64.6603 14.229C64.6603 13.9251 64.7297 13.6487 64.8688 13.3989C65.0079 13.1494 65.1877 12.9242 65.409 12.7236C65.2288 12.5436 65.0847 12.3275 64.9768 12.0752C64.8688 11.8232 64.8146 11.5093 64.8146 11.1335C64.8146 10.732 64.8851 10.3729 65.0267 10.0565C65.1685 9.74007 65.3656 9.47226 65.6175 9.25363C65.8695 9.035 66.1709 8.86786 66.5206 8.75163C66.8704 8.63598 67.2566 8.57835 67.6789 8.57835C67.895 8.57835 68.1019 8.59122 68.2998 8.61696C68.4979 8.64271 68.6821 8.67844 68.8519 8.72493H71.0365C71.1241 8.72493 71.1948 8.7816 71.2488 8.89457C71.3029 9.0083 71.33 9.19869 71.33 9.4663ZM69.2919 16.5921C69.2919 16.3604 69.1995 16.1827 69.0141 16.0591C68.8287 15.9358 68.5743 15.8689 68.2496 15.8586L66.8676 15.8201C66.7342 15.9177 66.627 16.0119 66.5473 16.1018C66.468 16.1917 66.4034 16.278 66.3542 16.3606C66.3052 16.4428 66.2733 16.5227 66.2578 16.5997C66.2426 16.6772 66.2345 16.7567 66.2345 16.8393C66.2345 17.0966 66.3648 17.2921 66.6247 17.426C66.8848 17.5598 67.251 17.6266 67.725 17.6266C68.0179 17.6266 68.2652 17.597 68.466 17.5378C68.6665 17.4789 68.8287 17.4001 68.952 17.3027C69.0755 17.2047 69.1633 17.0954 69.2144 16.9746C69.2659 16.8531 69.2919 16.7258 69.2919 16.5921ZM68.8366 11.0954C68.8366 10.7249 68.7336 10.4365 68.528 10.2307C68.3219 10.0248 68.031 9.922 67.6556 9.922C67.4652 9.922 67.2981 9.95409 67.154 10.0183C67.0097 10.0826 66.89 10.17 66.7949 10.2807C66.6995 10.3913 66.6291 10.5203 66.5828 10.6668C66.5365 10.8134 66.5133 10.9667 66.5133 11.1262C66.5133 11.4762 66.6163 11.7529 66.822 11.9561C67.0276 12.1594 67.3136 12.2608 67.6792 12.2608C67.8744 12.2608 68.0441 12.2301 68.1883 12.1682C68.3324 12.1065 68.4519 12.0216 68.547 11.9135C68.6425 11.8055 68.7144 11.6806 68.7632 11.5392C68.812 11.3975 68.8366 11.2497 68.8366 11.0954Z" fill="#FFFFFF"/>
<path d="M79.197 15.8739C79.197 15.9254 79.1814 15.9704 79.1507 16.009C79.1199 16.0476 79.068 16.0801 78.9962 16.1052C78.9242 16.1312 78.8246 16.1508 78.699 16.1635C78.5728 16.1763 78.4168 16.1827 78.2316 16.1827C78.0414 16.1827 77.8829 16.1763 77.7567 16.1635C77.6308 16.1508 77.5315 16.1312 77.4593 16.1052C77.3872 16.0801 77.3355 16.0476 77.3048 16.009C77.2741 15.9704 77.2587 15.9252 77.2587 15.8739V11.9446C77.2587 11.6099 77.2343 11.3475 77.1851 11.1573C77.1363 10.9667 77.0658 10.803 76.973 10.6668C76.8802 10.5306 76.7607 10.425 76.6142 10.3504C76.4674 10.2757 76.2962 10.2382 76.1006 10.2382C75.8534 10.2382 75.6038 10.3285 75.352 10.5087C75.0997 10.6889 74.8369 10.9514 74.5645 11.2962V15.8741C74.5645 15.9256 74.5489 15.9706 74.5182 16.0092C74.4872 16.0478 74.4344 16.0803 74.3599 16.1054C74.285 16.1314 74.1862 16.151 74.0625 16.1636C73.939 16.1765 73.782 16.1829 73.592 16.1829C73.4014 16.1829 73.2441 16.1765 73.1207 16.1636C72.9972 16.151 72.8983 16.1314 72.8235 16.1054C72.7488 16.0803 72.6965 16.0478 72.6654 16.0092C72.6347 15.9706 72.6191 15.9254 72.6191 15.8741V5.72197C72.6191 5.67086 72.6347 5.62418 72.6654 5.58307C72.6965 5.54176 72.7492 5.50699 72.8235 5.47875C72.8983 5.45051 72.9972 5.4288 73.1207 5.41324C73.2445 5.39768 73.4014 5.38999 73.592 5.38999C73.782 5.38999 73.9393 5.39787 74.0625 5.41324C74.1862 5.4288 74.285 5.45051 74.3599 5.47875C74.4348 5.5068 74.4872 5.54176 74.5182 5.58307C74.5489 5.62418 74.5645 5.67086 74.5645 5.72197V9.52816C74.8988 9.19868 75.2398 8.95297 75.5871 8.79082C75.9345 8.62868 76.2958 8.5476 76.6718 8.5476C77.1402 8.5476 77.5352 8.62484 77.8569 8.7793C78.1784 8.93376 78.4381 9.14489 78.6369 9.41232C78.8346 9.67993 78.9772 9.9927 79.0652 10.3504C79.1528 10.7079 79.1968 11.1417 79.1968 11.6512L79.197 15.8739Z" fill="#FFFFFF"/>
<path d="M88.0674 12.3615C88.0674 12.9482 87.9901 13.4834 87.8357 13.9672C87.6812 14.4509 87.4472 14.8678 87.1331 15.2181C86.8192 15.5679 86.4257 15.8382 85.952 16.0284C85.4786 16.2188 84.9255 16.3141 84.2925 16.3141C83.68 16.3141 83.1469 16.229 82.6942 16.0591C82.2416 15.8893 81.8656 15.6424 81.5673 15.3181C81.2685 14.9939 81.0474 14.5954 80.9035 14.1216C80.7594 13.6481 80.6872 13.1077 80.6872 12.5004C80.6872 11.9137 80.7658 11.3769 80.9227 10.8908C81.0797 10.4042 81.3152 9.98732 81.6291 9.63998C81.9433 9.29244 82.3358 9.02386 82.8068 8.83328C83.2771 8.6427 83.8295 8.54761 84.4627 8.54761C85.0805 8.54761 85.6152 8.63137 86.0682 8.79832C86.5212 8.96604 86.8953 9.21175 87.1917 9.53604C87.4876 9.86033 87.7079 10.2594 87.852 10.7325C87.9953 11.2059 88.0674 11.7488 88.0674 12.3615ZM86.0678 12.4387C86.0678 12.0989 86.0407 11.7863 85.9868 11.5004C85.9328 11.2149 85.8413 10.9665 85.7128 10.7556C85.5839 10.5446 85.4127 10.3798 85.1991 10.2615C84.9858 10.1429 84.7163 10.0838 84.3924 10.0838C84.104 10.0838 83.8519 10.1366 83.6358 10.2421C83.4199 10.3475 83.2422 10.502 83.1035 10.7053C82.9644 10.9085 82.8598 11.1533 82.7907 11.4386C82.7213 11.7242 82.6868 12.0501 82.6868 12.4153C82.6868 12.7547 82.7146 13.0675 82.7713 13.353C82.828 13.6387 82.9192 13.8875 83.0452 14.098C83.1715 14.3092 83.3426 14.4726 83.559 14.5881C83.7751 14.704 84.0427 14.762 84.3618 14.762C84.655 14.762 84.9101 14.7091 85.1263 14.6037C85.3426 14.4984 85.5201 14.3449 85.659 14.1443C85.7979 13.9438 85.9007 13.7003 85.9675 13.4147C86.0342 13.1296 86.0678 12.8041 86.0678 12.4387Z" fill="#FFFFFF"/>
<path d="M96.1349 15.8739C96.1349 15.9254 96.122 15.9704 96.0961 16.009C96.0705 16.0476 96.0254 16.0801 95.961 16.1052C95.8969 16.1312 95.8119 16.1508 95.7067 16.1635C95.6012 16.1763 95.4686 16.1827 95.3094 16.1827C95.139 16.1827 95.0014 16.1763 94.8961 16.1635C94.7904 16.1508 94.7069 16.1312 94.6448 16.1052C94.5835 16.0801 94.5395 16.0476 94.5136 16.009C94.4877 15.9704 94.4754 15.9252 94.4754 15.8739V15.0788C94.0946 15.4909 93.7071 15.7994 93.3135 16.0053C92.9192 16.2111 92.5114 16.3141 92.0897 16.3141C91.6159 16.3141 91.2184 16.2368 90.8968 16.0824C90.575 15.9281 90.3155 15.717 90.117 15.4494C89.9189 15.1819 89.7773 14.8717 89.6924 14.5191C89.6077 14.1664 89.5651 13.7276 89.5651 13.2028V8.98774C89.5651 8.93625 89.5791 8.89111 89.6077 8.85268C89.6358 8.81388 89.6872 8.78199 89.7624 8.75605C89.8369 8.7305 89.9368 8.71129 90.063 8.69822C90.1889 8.68535 90.3449 8.67863 90.5302 8.67863C90.7204 8.67863 90.8778 8.68516 91.0011 8.69822C91.1247 8.71109 91.2236 8.73031 91.2983 8.75605C91.3735 8.78199 91.4257 8.81388 91.4566 8.85268C91.4874 8.89111 91.5029 8.93625 91.5029 8.98774V12.8787C91.5029 13.2391 91.526 13.5146 91.5725 13.7048C91.6182 13.8951 91.6889 14.0582 91.7846 14.1948C91.8797 14.3314 92.0007 14.4369 92.1473 14.5113C92.2945 14.5858 92.4649 14.6231 92.661 14.6231C92.9077 14.6231 93.1563 14.5333 93.4061 14.3531C93.6558 14.1729 93.9223 13.9103 94.2051 13.5655V8.98774C94.2051 8.93625 94.2189 8.89111 94.2475 8.85268C94.2756 8.81388 94.3273 8.78199 94.402 8.75605C94.4765 8.7305 94.5757 8.71129 94.6994 8.69822C94.8231 8.68535 94.9797 8.67863 95.1701 8.67863C95.3607 8.67863 95.5178 8.68516 95.6409 8.69822C95.7647 8.71109 95.8621 8.73031 95.9345 8.75605C96.0066 8.78199 96.0578 8.81388 96.0888 8.85268C96.1195 8.89111 96.1351 8.93625 96.1351 8.98774V15.8739" fill="#FFFFFF"/>
<path d="M102.936 13.9284C102.936 14.3199 102.863 14.6646 102.716 14.9629C102.569 15.2617 102.362 15.5112 102.095 15.7118C101.827 15.9127 101.51 16.0632 101.145 16.1635C100.78 16.2637 100.383 16.3141 99.9564 16.3141C99.6988 16.3141 99.4534 16.2949 99.2191 16.2561C98.9847 16.2176 98.7749 16.1686 98.5899 16.1095C98.4047 16.0501 98.25 15.9898 98.1269 15.9281C98.0031 15.8663 97.9138 15.8082 97.8568 15.7544C97.7999 15.7001 97.7565 15.6153 97.7252 15.4995C97.6944 15.3839 97.6792 15.2129 97.6792 14.9864C97.6792 14.8369 97.6842 14.7174 97.6944 14.6273C97.705 14.537 97.7205 14.465 97.7409 14.4112C97.7613 14.3568 97.7868 14.3209 97.8176 14.303C97.8487 14.2849 97.8873 14.2759 97.9336 14.2759C97.9903 14.2759 98.0737 14.3082 98.1849 14.3722C98.2954 14.4367 98.4329 14.5076 98.5974 14.5845C98.7624 14.6619 98.9537 14.7339 99.1726 14.8006C99.3914 14.8676 99.6396 14.9009 99.9174 14.9009C100.093 14.9009 100.248 14.8828 100.385 14.8469C100.521 14.8108 100.64 14.7595 100.74 14.6926C100.84 14.626 100.916 14.5408 100.968 14.4379C101.02 14.3349 101.045 14.2166 101.045 14.0825C101.045 13.928 100.997 13.7954 100.902 13.685C100.807 13.5745 100.681 13.4779 100.524 13.3958C100.367 13.3136 100.189 13.2362 99.9915 13.1641C99.7937 13.0921 99.5902 13.0124 99.3814 12.9246C99.1729 12.8372 98.9695 12.7369 98.7716 12.6237C98.5733 12.5108 98.3956 12.3717 98.2389 12.2068C98.0821 12.0422 97.9559 11.8437 97.8608 11.6124C97.7653 11.3807 97.7179 11.1027 97.7179 10.7785C97.7179 10.4494 97.782 10.1468 97.9107 9.87148C98.0397 9.59598 98.2252 9.36103 98.4667 9.16526C98.7088 8.96949 99.0037 8.81772 99.351 8.70956C99.699 8.60159 100.088 8.54742 100.521 8.54742C100.737 8.54742 100.947 8.56298 101.15 8.5941C101.353 8.62484 101.537 8.66326 101.702 8.70956C101.866 8.75586 102.005 8.8062 102.118 8.85999C102.232 8.91436 102.313 8.96066 102.362 8.99908C102.411 9.03789 102.446 9.07612 102.466 9.11493C102.487 9.15354 102.502 9.19965 102.512 9.25383C102.523 9.30781 102.532 9.37486 102.539 9.45478C102.547 9.53451 102.551 9.63364 102.551 9.75198C102.551 9.89088 102.547 10.004 102.539 10.092C102.532 10.1794 102.519 10.2484 102.501 10.3001C102.483 10.352 102.458 10.3863 102.428 10.4042C102.397 10.4227 102.361 10.4315 102.32 10.4315C102.273 10.4315 102.201 10.4042 102.103 10.3504C102.006 10.2961 101.883 10.2382 101.737 10.1766C101.59 10.1151 101.42 10.0569 101.228 10.0029C101.034 9.94871 100.814 9.922 100.567 9.922C100.392 9.922 100.24 9.93987 100.112 9.9758C99.9833 10.0121 99.8778 10.0636 99.7952 10.1303C99.7128 10.1975 99.6515 10.2757 99.6102 10.366C99.5689 10.4559 99.5483 10.5525 99.5483 10.6551C99.5483 10.815 99.5975 10.9487 99.6953 11.0566C99.7931 11.1646 99.922 11.2603 100.081 11.3423C100.241 11.4245 100.422 11.502 100.626 11.574C100.829 11.646 101.035 11.7244 101.244 11.8092C101.452 11.8943 101.657 11.9934 101.861 12.1064C102.064 12.2199 102.246 12.3586 102.406 12.5234C102.565 12.6881 102.694 12.8848 102.791 13.114C102.887 13.3432 102.936 13.6145 102.936 13.9284Z" fill="#FFFFFF"/>
<path d="M110.757 12.2301C110.757 12.467 110.704 12.6422 110.598 12.7549C110.493 12.8685 110.348 12.9248 110.162 12.9248H105.97C105.97 13.2179 106.005 13.4846 106.074 13.7236C106.144 13.9632 106.255 14.1664 106.407 14.3336C106.558 14.5009 106.754 14.6285 106.993 14.7157C107.232 14.8035 107.52 14.8471 107.854 14.8471C108.194 14.8471 108.492 14.8231 108.75 14.7739C109.007 14.7251 109.229 14.6709 109.418 14.6117C109.605 14.5524 109.761 14.4988 109.885 14.4496C110.008 14.4008 110.108 14.3764 110.186 14.3764C110.232 14.3764 110.27 14.3852 110.301 14.4035C110.332 14.4215 110.358 14.4534 110.379 14.4999C110.399 14.5462 110.413 14.6119 110.421 14.6967C110.429 14.7818 110.433 14.8888 110.433 15.0171C110.433 15.1304 110.431 15.2271 110.425 15.3066C110.42 15.3863 110.413 15.4547 110.402 15.5112C110.392 15.5677 110.376 15.6153 110.356 15.6538C110.335 15.6926 110.308 15.7299 110.275 15.766C110.241 15.8021 110.15 15.8511 110 15.9127C109.851 15.9742 109.661 16.0347 109.429 16.0939C109.198 16.1531 108.933 16.2046 108.634 16.2486C108.335 16.2924 108.016 16.3141 107.677 16.3141C107.064 16.3141 106.528 16.2368 106.067 16.0824C105.607 15.9281 105.222 15.6941 104.913 15.3798C104.604 15.0659 104.374 14.6696 104.222 14.1908C104.07 13.7123 103.994 13.1513 103.994 12.5081C103.994 11.8956 104.074 11.3435 104.233 10.8518C104.393 10.3606 104.624 9.94371 104.928 9.60098C105.232 9.25901 105.601 8.99793 106.036 8.81772C106.471 8.63771 106.961 8.54742 107.507 8.54742C108.083 8.54742 108.575 8.63214 108.985 8.80216C109.394 8.97199 109.73 9.20753 109.992 9.50857C110.255 9.80981 110.448 10.1662 110.571 10.5779C110.695 10.9898 110.756 11.4374 110.756 11.9212V12.2301H110.757ZM108.873 11.6741C108.888 11.1287 108.779 10.7005 108.545 10.3888C108.311 10.0774 107.949 9.922 107.46 9.922C107.213 9.922 106.999 9.9683 106.816 10.0609C106.633 10.1533 106.481 10.2782 106.361 10.4351C106.24 10.5923 106.147 10.7775 106.083 10.9907C106.018 11.2046 105.982 11.4326 105.971 11.6741H108.873V11.6741Z" fill="#FFFFFF"/>
<path d="M57.12 32.4249C57.12 32.5427 57.0994 32.6477 57.0585 32.7402C57.0176 32.8322 56.9625 32.909 56.8933 32.9705C56.8241 33.032 56.7421 33.0771 56.6474 33.105C56.5525 33.133 56.4564 33.1472 56.3592 33.1472H55.4985C55.3191 33.1472 55.1642 33.1294 55.0336 33.0936C54.903 33.0575 54.7825 32.9926 54.6724 32.8975C54.5622 32.8028 54.4559 32.6748 54.3535 32.5133C54.2509 32.3519 54.1359 32.1431 54.0077 31.8868L51.5333 27.2378C51.3897 26.9613 51.2437 26.663 51.0952 26.3425C50.9467 26.0224 50.8134 25.7114 50.6956 25.409H50.6803C50.7006 25.7779 50.7162 26.1456 50.7264 26.5118C50.7365 26.8777 50.7417 27.2558 50.7417 27.6449V32.8474C50.7417 32.8988 50.7275 32.9449 50.6995 32.9859C50.6714 33.0272 50.6226 33.0618 50.5535 33.0896C50.4843 33.1175 50.3907 33.1398 50.273 33.1551C50.155 33.1705 50.004 33.178 49.8196 33.178C49.6401 33.178 49.4916 33.1705 49.3739 33.1551C49.2559 33.1398 49.1637 33.118 49.0972 33.0896C49.0306 33.0616 48.9844 33.0272 48.9589 32.9859C48.9332 32.9449 48.9205 32.8988 48.9205 32.8474V23.9101C48.9205 23.6692 48.9908 23.4888 49.1318 23.3684C49.2726 23.2479 49.4455 23.188 49.6505 23.188H50.734C50.9287 23.188 51.0925 23.2045 51.2259 23.2379C51.359 23.2713 51.4781 23.3265 51.5832 23.4029C51.6881 23.4798 51.7868 23.5862 51.8791 23.7219C51.9713 23.8577 52.066 24.0254 52.1634 24.2252L54.0999 27.86C54.2125 28.0804 54.3241 28.2969 54.4342 28.5094C54.5443 28.7221 54.6505 28.9347 54.7531 29.1472C54.8555 29.3599 54.9554 29.5685 55.0528 29.7735C55.15 29.9783 55.2449 30.1835 55.3372 30.3881H55.3448C55.3295 30.0298 55.3179 29.6559 55.3103 29.2661C55.3026 28.8771 55.2987 28.5055 55.2987 28.152V23.4873C55.2987 23.4362 55.3141 23.3901 55.3448 23.3492C55.3756 23.3079 55.4267 23.2723 55.4985 23.2412C55.5702 23.2104 55.6649 23.1889 55.7829 23.1757C55.9006 23.1632 56.0518 23.1565 56.2363 23.1565C56.4103 23.1565 56.5563 23.1628 56.6743 23.1757C56.7921 23.1887 56.8829 23.2104 56.9471 23.2412C57.0111 23.2717 57.0558 23.3079 57.0816 23.3492C57.1071 23.3901 57.12 23.4362 57.12 23.4873V32.4249V32.4249Z" fill="#FFFFFF"/>
<path d="M65.5039 29.2433C65.5039 29.479 65.4515 29.6532 65.3464 29.7658C65.2413 29.8786 65.0964 29.9351 64.9122 29.9351H60.7393C60.7393 30.2273 60.7738 30.492 60.8432 30.7304C60.912 30.9686 61.0222 31.1713 61.1734 31.3375C61.3246 31.5039 61.5194 31.6307 61.7577 31.7177C61.9959 31.8049 62.2816 31.8485 62.6143 31.8485C62.9524 31.8485 63.2496 31.8241 63.5059 31.7755C63.7622 31.7267 63.9835 31.6733 64.1708 31.614C64.3579 31.555 64.5126 31.5014 64.6359 31.4526C64.7587 31.4038 64.8586 31.3794 64.9354 31.3794C64.9816 31.3794 65.0202 31.3884 65.0511 31.4065C65.0815 31.4245 65.1074 31.4566 65.1276 31.5025C65.1479 31.5486 65.1621 31.614 65.17 31.6987C65.1775 31.7828 65.1819 31.8897 65.1819 32.0176C65.1819 32.1302 65.179 32.2262 65.174 32.3058C65.1689 32.3849 65.1614 32.4529 65.1512 32.5092C65.1406 32.5659 65.1253 32.6132 65.1051 32.6514C65.0847 32.69 65.0574 32.7273 65.0244 32.7628C64.991 32.7989 64.9003 32.8472 64.7516 32.9088C64.6029 32.9707 64.4135 33.0308 64.1827 33.0894C63.9524 33.1482 63.6882 33.1995 63.3914 33.2431C63.0942 33.2869 62.7764 33.3084 62.4383 33.3084C61.8285 33.3084 61.2947 33.2318 60.8361 33.0781C60.3775 32.9242 59.9948 32.6912 59.6874 32.3786C59.3798 32.0664 59.1506 31.6716 58.9998 31.1952C58.8486 30.7189 58.7729 30.1602 58.7729 29.5201C58.7729 28.9101 58.8525 28.3611 59.0112 27.8717C59.1699 27.3824 59.4004 26.9675 59.7028 26.6268C60.0052 26.2866 60.3725 26.0263 60.8055 25.8467C61.2386 25.6672 61.7263 25.5779 62.2696 25.5779C62.8433 25.5779 63.3338 25.6624 63.7413 25.8313C64.1483 26.0005 64.4824 26.2349 64.7439 26.5344C65.0054 26.8343 65.1975 27.1888 65.3203 27.5989C65.4434 28.0087 65.5049 28.4542 65.5049 28.9359V29.2433H65.5039V29.2433ZM63.6291 28.6898C63.6444 28.1469 63.5353 27.7206 63.3023 27.4103C63.0692 27.1006 62.7094 26.9454 62.2228 26.9454C61.9767 26.9454 61.7627 26.9915 61.5811 27.0839C61.3992 27.1761 61.248 27.3004 61.1275 27.4564C61.0071 27.6126 60.9154 27.797 60.8513 28.0099C60.7871 28.2227 60.75 28.4492 60.7398 28.6898H63.6291Z" fill="#FFFFFF"/>
<path d="M71.0445 32.1945C71.0445 32.4201 71.0303 32.5926 71.0023 32.7131C70.974 32.8335 70.9369 32.9179 70.8908 32.9665C70.8447 33.0153 70.7767 33.0585 70.687 33.0973C70.5971 33.1355 70.492 33.1689 70.3717 33.1972C70.2513 33.2252 70.1206 33.2473 69.9798 33.2627C69.8392 33.2779 69.6966 33.2858 69.5533 33.2858C69.1691 33.2858 68.836 33.237 68.5543 33.1397C68.2725 33.0425 68.0395 32.8925 67.8548 32.6902C67.6704 32.4875 67.5348 32.2328 67.4477 31.9256C67.3605 31.6182 67.3169 31.2545 67.3169 30.8344V27.3223H66.4948C66.3972 27.3223 66.3227 27.2624 66.272 27.1421C66.2205 27.0214 66.1951 26.8203 66.1951 26.5385C66.1951 26.3902 66.2015 26.2643 66.2146 26.1619C66.227 26.0595 66.2466 25.9788 66.2724 25.9199C66.2979 25.8607 66.33 25.8188 66.3684 25.7931C66.4067 25.7675 66.4518 25.7546 66.5027 25.7546H67.3173V24.2254C67.3173 24.1743 67.3311 24.1282 67.3598 24.0869C67.3878 24.046 67.4391 24.0112 67.5134 23.9833C67.5876 23.9553 67.6875 23.9345 67.8131 23.9219C67.9388 23.9092 68.0938 23.9026 68.2783 23.9026C68.4675 23.9026 68.6254 23.909 68.7509 23.9219C68.8761 23.9345 68.9751 23.9553 69.0467 23.9833C69.1184 24.0114 69.1699 24.046 69.2006 24.0869C69.2311 24.1282 69.2465 24.1743 69.2465 24.2254V25.7546H70.7375C70.7886 25.7546 70.8336 25.7675 70.8718 25.7931C70.91 25.8188 70.9419 25.8611 70.9679 25.9199C70.9936 25.9786 71.0124 26.0595 71.0257 26.1619C71.038 26.2643 71.0449 26.3902 71.0449 26.5385C71.0449 26.8203 71.0192 27.0214 70.9683 27.1421C70.9168 27.2622 70.8428 27.3223 70.7456 27.3223H69.2469V30.5423C69.2469 30.9162 69.3059 31.1969 69.4237 31.384C69.5412 31.5711 69.7516 31.6645 70.0536 31.6645C70.156 31.6645 70.2486 31.6555 70.3302 31.6374C70.4119 31.6193 70.4851 31.599 70.5493 31.5761C70.6132 31.5531 70.667 31.5323 70.7108 31.5148C70.7544 31.4968 70.7942 31.4877 70.8297 31.4877C70.8605 31.4877 70.8899 31.4968 70.9181 31.5148C70.9464 31.5329 70.9683 31.5684 70.9836 31.6224C70.999 31.6764 71.0128 31.749 71.0261 31.8418C71.038 31.9329 71.0445 32.0512 71.0445 32.1945Z" fill="#FFFFFF"/>
<path d="M82.9326 26.0002C82.9326 26.0568 82.925 26.1258 82.9096 26.2076C82.8944 26.2899 82.8658 26.4076 82.8252 26.5611L80.9961 32.7628C80.9704 32.8498 80.9369 32.9202 80.896 32.9741C80.8549 33.0277 80.7923 33.0702 80.7079 33.1009C80.6236 33.1317 80.5031 33.1522 80.3468 33.1624C80.1906 33.1726 79.9867 33.1778 79.7356 33.1778C79.4846 33.1778 79.2796 33.1711 79.1209 33.1582C78.9622 33.1453 78.8377 33.1236 78.7486 33.0929C78.6586 33.0621 78.5933 33.0197 78.5524 32.9661C78.5115 32.9125 78.4807 32.8445 78.4604 32.7622L77.3077 28.597L77.2923 28.5282L77.277 28.597L76.2163 32.7622C76.1961 32.8497 76.1663 32.9198 76.1279 32.9738C76.0897 33.0276 76.0242 33.0698 75.9319 33.1004C75.8397 33.1311 75.7141 33.1519 75.5554 33.1618C75.3965 33.172 75.1913 33.1772 74.9406 33.1772C74.6843 33.1772 74.4782 33.1709 74.322 33.1578C74.1656 33.1453 74.0427 33.123 73.9532 33.0923C73.8632 33.0618 73.7977 33.0195 73.757 32.9657C73.7159 32.9121 73.6852 32.8439 73.665 32.7621L71.8512 26.5608C71.8051 26.4124 71.7755 26.2958 71.7628 26.2113C71.7502 26.1271 71.7436 26.0564 71.7436 25.9998C71.7436 25.9485 71.7573 25.9037 71.7859 25.8655C71.814 25.8271 71.8652 25.7965 71.9396 25.7735C72.0139 25.7502 72.1137 25.7337 72.2397 25.7231C72.3647 25.7129 72.5227 25.7078 72.7123 25.7078C72.9167 25.7078 73.0836 25.7129 73.2118 25.7231C73.3397 25.7337 73.4398 25.7512 73.5115 25.7767C73.5833 25.8027 73.6335 25.8371 73.6613 25.8807C73.6894 25.9243 73.7113 25.9767 73.7267 26.0382L75.0868 31.0714L75.1022 31.1635L75.1176 31.0714L76.3934 26.0382C76.4086 25.9767 76.433 25.9239 76.4664 25.8807C76.4998 25.8371 76.5498 25.8027 76.6161 25.7767C76.6829 25.7512 76.7761 25.7331 76.8966 25.7231C77.017 25.7131 77.1722 25.7078 77.3615 25.7078C77.5509 25.7078 77.7048 25.7143 77.8226 25.7274C77.9403 25.74 78.0341 25.7581 78.103 25.781C78.1722 25.8038 78.2208 25.8346 78.2491 25.873C78.2773 25.9116 78.2992 25.9565 78.3146 26.0076L79.6822 31.0793L79.7053 31.1635L79.7207 31.0714L81.0272 26.0382C81.0374 25.9767 81.0578 25.9239 81.0885 25.8807C81.1193 25.8371 81.1706 25.8027 81.2422 25.7767C81.3139 25.7512 81.4115 25.7331 81.5344 25.7231C81.6574 25.7129 81.8134 25.7078 82.0028 25.7078C82.1922 25.7078 82.3475 25.7129 82.4679 25.7231C82.5882 25.7337 82.6829 25.7502 82.7521 25.7735C82.821 25.7963 82.8683 25.8269 82.894 25.8655C82.9198 25.9041 82.9326 25.9492 82.9326 26.0002Z" fill="#FFFFFF"/>
<path d="M90.9707 29.3739C90.9707 29.9579 90.8939 30.4909 90.7402 30.9723C90.5865 31.4539 90.3531 31.8687 90.0407 32.2172C89.7281 32.5653 89.3362 32.8345 88.865 33.0239C88.3937 33.2129 87.8431 33.308 87.2128 33.308C86.603 33.308 86.0726 33.2239 85.6221 33.0546C85.1712 32.8856 84.7971 32.6399 84.5001 32.3167C84.2029 31.994 83.9825 31.5971 83.8394 31.1258C83.6959 30.6545 83.6243 30.1166 83.6243 29.5124C83.6243 28.9282 83.7023 28.3943 83.8586 27.91C84.015 27.4257 84.2492 27.0107 84.5618 26.6653C84.8743 26.3198 85.2649 26.0518 85.7339 25.8622C86.2024 25.6728 86.7523 25.5779 87.3822 25.5779C87.9968 25.5779 88.5297 25.6613 88.9804 25.8276C89.4313 25.9942 89.804 26.2392 90.0984 26.5613C90.3929 26.8841 90.6121 27.2814 90.7556 27.7526C90.8987 28.2243 90.9707 28.7643 90.9707 29.3739ZM88.9804 29.4507C88.9804 29.1126 88.9535 28.8012 88.8997 28.5171C88.8461 28.2329 88.7549 27.9855 88.6269 27.7759C88.4988 27.5655 88.3282 27.4018 88.1159 27.2837C87.9034 27.1659 87.6356 27.1069 87.3127 27.1069C87.0259 27.1069 86.7748 27.1596 86.5596 27.2643C86.3446 27.3694 86.1679 27.5232 86.0293 27.7254C85.8908 27.928 85.7871 28.1707 85.7181 28.4556C85.6491 28.7397 85.6144 29.0638 85.6144 29.4275C85.6144 29.7658 85.6424 30.077 85.6987 30.3614C85.7552 30.6455 85.8461 30.893 85.9715 31.1027C86.097 31.3129 86.2674 31.4753 86.4825 31.5905C86.6977 31.7062 86.9642 31.7634 87.2817 31.7634C87.574 31.7634 87.8274 31.711 88.0425 31.6059C88.2577 31.5008 88.4344 31.3485 88.5728 31.1485C88.7113 30.9489 88.8137 30.7068 88.8803 30.4227C88.947 30.1385 88.9804 29.8146 88.9804 29.4507Z" fill="#FFFFFF"/>
<path d="M96.9035 26.6539C96.9035 26.8382 96.8985 26.9892 96.8881 27.1069C96.8775 27.2249 96.8622 27.3171 96.842 27.3836C96.8218 27.4501 96.7947 27.4962 96.7613 27.5217C96.7279 27.5476 96.6854 27.5603 96.6347 27.5603C96.5936 27.5603 96.5475 27.5513 96.4962 27.5332C96.4447 27.5152 96.3875 27.4962 96.3235 27.4754C96.2593 27.4552 96.189 27.4358 96.112 27.4176C96.0353 27.3999 95.9506 27.3909 95.8586 27.3909C95.7508 27.3909 95.6434 27.4124 95.5356 27.4562C95.4279 27.4998 95.3164 27.5676 95.2014 27.6598C95.0863 27.7521 94.9656 27.875 94.8402 28.0287C94.7147 28.1828 94.5801 28.372 94.4368 28.5974V32.87C94.4368 32.9215 94.4214 32.9661 94.3906 33.0043C94.3599 33.0429 94.3071 33.0748 94.2333 33.1004C94.1588 33.1263 94.0606 33.1451 93.9375 33.1582C93.8143 33.1709 93.6581 33.1778 93.4689 33.1778C93.2793 33.1778 93.1229 33.1711 93.0001 33.1582C92.8774 33.1453 92.7786 33.1263 92.7043 33.1004C92.6299 33.0748 92.5777 33.0429 92.5469 33.0043C92.5164 32.9661 92.501 32.9213 92.501 32.87V26.0153C92.501 25.9638 92.5135 25.9193 92.5393 25.8807C92.565 25.8424 92.6109 25.8105 92.6778 25.7846C92.7444 25.759 92.8301 25.74 92.9352 25.7272C93.0403 25.7143 93.1719 25.7076 93.3311 25.7076C93.4952 25.7076 93.631 25.7141 93.7384 25.7272C93.8462 25.7396 93.9292 25.759 93.9882 25.7846C94.0471 25.8105 94.0892 25.8424 94.115 25.8807C94.1405 25.9193 94.1532 25.9642 94.1532 26.0153V26.8679C94.3326 26.6118 94.5013 26.4005 94.6606 26.234C94.8193 26.0676 94.9704 25.9356 95.1138 25.838C95.2573 25.7408 95.4006 25.673 95.5441 25.6342C95.6874 25.5959 95.8309 25.5763 95.9744 25.5763C96.0411 25.5763 96.1127 25.5804 96.1894 25.5883C96.2661 25.5961 96.3456 25.6086 96.4276 25.6265C96.5095 25.6447 96.5813 25.6649 96.6428 25.6878C96.7041 25.711 96.749 25.7354 96.7771 25.761C96.8051 25.7867 96.8259 25.8146 96.8384 25.8453C96.851 25.876 96.8628 25.9185 96.8731 25.9721C96.8835 26.0257 96.8912 26.1064 96.8962 26.2142C96.9008 26.3231 96.9035 26.4693 96.9035 26.6539Z" fill="#FFFFFF"/>
<path d="M104.465 32.8781C104.465 32.9296 104.451 32.9741 104.423 33.0124C104.395 33.051 104.343 33.0817 104.269 33.1046C104.194 33.1276 104.094 33.1455 103.966 33.1582C103.838 33.1709 103.671 33.1778 103.466 33.1778C103.256 33.1778 103.086 33.1726 102.955 33.1624C102.824 33.1519 102.717 33.1351 102.632 33.1123C102.548 33.0892 102.482 33.0571 102.436 33.0162C102.39 32.9751 102.349 32.9215 102.313 32.8547L100.03 29.2427V32.87C100.03 32.9215 100.015 32.9661 99.9844 33.0043C99.9537 33.0429 99.9009 33.0748 99.8271 33.1004C99.7526 33.1263 99.6542 33.1451 99.5312 33.1582C99.4081 33.1709 99.2519 33.1778 99.0625 33.1778C98.8731 33.1778 98.7167 33.1711 98.5939 33.1582C98.4711 33.1453 98.3724 33.1263 98.298 33.1004C98.2237 33.0748 98.1714 33.0429 98.1407 33.0043C98.11 32.9661 98.0948 32.9211 98.0948 32.87V22.7648C98.0948 22.7133 98.11 22.6672 98.1407 22.626C98.1714 22.5851 98.2241 22.5504 98.298 22.5223C98.3724 22.4943 98.4709 22.4724 98.5939 22.457C98.717 22.4416 98.8731 22.4339 99.0625 22.4339C99.2519 22.4339 99.4085 22.4416 99.5312 22.457C99.654 22.4724 99.7526 22.4941 99.8271 22.5223C99.9012 22.5504 99.9537 22.5851 99.9844 22.626C100.015 22.6672 100.03 22.7133 100.03 22.7648V28.7816L102.059 26.0536C102.1 25.9921 102.146 25.9381 102.198 25.8922C102.249 25.8461 102.317 25.8102 102.402 25.7844C102.486 25.7589 102.591 25.7397 102.717 25.7266C102.842 25.7141 103.002 25.7072 103.197 25.7072C103.386 25.7072 103.547 25.7137 103.677 25.7266C103.808 25.7393 103.913 25.7589 103.993 25.7844C104.072 25.8102 104.127 25.8421 104.158 25.8805C104.188 25.9187 104.204 25.9664 104.204 26.0226C104.204 26.0991 104.184 26.1813 104.146 26.2684C104.108 26.3554 104.05 26.4478 103.973 26.5448L101.968 28.8195L104.288 32.4084C104.35 32.5108 104.395 32.5991 104.423 32.6735C104.451 32.7486 104.465 32.8168 104.465 32.8781Z" fill="#FFFFFF"/>
<path d="M110.344 30.9339C110.344 31.3231 110.271 31.6664 110.125 31.9636C109.979 32.2608 109.772 32.5092 109.506 32.7088C109.239 32.9088 108.925 33.0585 108.561 33.1586C108.197 33.2587 107.803 33.3084 107.377 33.3084C107.121 33.3084 106.877 33.289 106.644 33.2506C106.41 33.2124 106.202 33.1636 106.017 33.1046C105.833 33.0456 105.679 32.9857 105.556 32.9242C105.433 32.8627 105.344 32.8049 105.287 32.7513C105.231 32.6977 105.188 32.6128 105.157 32.4981C105.126 32.3824 105.111 32.2126 105.111 31.987C105.111 31.8385 105.116 31.7191 105.126 31.6297C105.136 31.5402 105.152 31.4681 105.172 31.4145C105.192 31.3609 105.218 31.3248 105.249 31.3068C105.279 31.2891 105.318 31.2799 105.364 31.2799C105.421 31.2799 105.504 31.3118 105.614 31.3759C105.724 31.4399 105.861 31.5102 106.025 31.5875C106.189 31.6643 106.38 31.7358 106.598 31.8024C106.815 31.8693 107.063 31.9025 107.339 31.9025C107.513 31.9025 107.668 31.8847 107.804 31.8489C107.94 31.8132 108.057 31.7621 108.158 31.695C108.258 31.6284 108.333 31.544 108.384 31.4416C108.436 31.3392 108.461 31.2215 108.461 31.0881C108.461 30.9343 108.414 30.8027 108.319 30.6922C108.224 30.5821 108.099 30.4861 107.942 30.404C107.786 30.3222 107.61 30.2453 107.412 30.1735C107.215 30.1018 107.013 30.0225 106.805 29.9354C106.598 29.8484 106.395 29.7483 106.198 29.6356C106.001 29.523 105.824 29.3845 105.668 29.2206C105.511 29.0565 105.386 28.8592 105.291 28.6289C105.196 28.3985 105.149 28.1215 105.149 27.7993C105.149 27.4714 105.213 27.1705 105.341 26.8962C105.469 26.6222 105.654 26.3878 105.895 26.193C106.135 25.9986 106.429 25.8474 106.774 25.7398C107.12 25.6323 107.508 25.5785 107.939 25.5785C108.154 25.5785 108.363 25.5938 108.565 25.6246C108.768 25.6553 108.951 25.6935 109.114 25.7398C109.278 25.7859 109.417 25.8359 109.529 25.8895C109.642 25.9435 109.723 25.9896 109.771 26.028C109.82 26.0664 109.855 26.1049 109.875 26.1437C109.896 26.1823 109.911 26.2278 109.921 26.2818C109.931 26.3358 109.941 26.4023 109.948 26.4818C109.956 26.5613 109.96 26.6599 109.96 26.7775C109.96 26.916 109.956 27.0287 109.948 27.1158C109.941 27.203 109.928 27.272 109.91 27.3231C109.892 27.3745 109.867 27.4089 109.837 27.427C109.806 27.4451 109.77 27.4539 109.729 27.4539C109.683 27.4539 109.611 27.427 109.514 27.3732C109.417 27.3198 109.295 27.2618 109.149 27.2005C109.003 27.139 108.834 27.0816 108.642 27.0278C108.45 26.974 108.231 26.9469 107.985 26.9469C107.811 26.9469 107.659 26.9651 107.532 27.0009C107.403 27.0368 107.298 27.0879 107.216 27.1544C107.134 27.2212 107.073 27.2992 107.032 27.389C106.991 27.4787 106.97 27.5747 106.97 27.6771C106.97 27.836 107.019 27.9693 107.117 28.0767C107.214 28.1845 107.342 28.2792 107.501 28.3611C107.659 28.4429 107.84 28.5197 108.042 28.5914C108.245 28.6631 108.45 28.7411 108.657 28.826C108.865 28.9101 109.069 29.0091 109.272 29.1216C109.474 29.2346 109.655 29.3729 109.813 29.5366C109.972 29.7007 110.1 29.8964 110.198 30.1247C110.295 30.3512 110.344 30.6215 110.344 30.9339Z" fill="#FFFFFF"/>
</g>
<defs>
<clipPath id="clip0_102_24">
<rect width="117.373" height="40" fill="#FFFFFF"/>
</clipPath>
</defs>
</svg>
